<?xml version="1.0" standalone="no"?>
<!DOCTYPE svg PUBLIC "-//W3C//DTD SVG 20010904//EN"
 "http://www.w3.org/TR/2001/REC-SVG-20010904/DTD/svg10.dtd">
<svg version="1.0" xmlns="http://www.w3.org/2000/svg"
 width="532.000000pt" height="420.000000pt" viewBox="0 0 532.000000 420.000000"
 preserveAspectRatio="xMidYMid meet">

<g transform="translate(0.000000,420.000000) scale(0.100000,-0.100000)"
fill="#000000" stroke="none">
<path d="M0 2100 l0 -2100 2660 0 2660 0 0 2100 0 2100 -2660 0 -2660 0 0
-2100z m2091 1629 c204 -56 377 -196 471 -383 l30 -59 81 80 c205 200 363 302
554 359 73 22 110 27 213 28 137 1 193 -9 305 -57 204 -86 360 -259 431 -477
24 -75 27 -101 28 -220 1 -156 -16 -227 -87 -365 -52 -100 -178 -231 -284
-294 -168 -100 -382 -130 -578 -81 -205 51 -425 240 -501 429 -9 23 -19 41
-23 41 -4 0 -50 -49 -103 -108 -121 -137 -235 -229 -363 -292 -246 -121 -487
-124 -719 -9 -178 88 -316 252 -383 454 -23 71 -26 96 -27 220 0 133 2 145 32
235 77 224 225 385 434 471 150 62 329 72 489 28z m-569 -1850 c77 -16 139
-51 199 -111 214 -214 118 -579 -175 -663 -46 -14 -89 -16 -210 -13 -138 3
-156 6 -209 30 -248 116 -314 434 -131 637 48 53 141 108 206 120 64 13 260
13 320 0z m1168 -88 l0 -99 -227 -4 c-248 -3 -259 -6 -315 -65 -34 -36 -49
-76 -49 -133 -1 -83 39 -146 116 -181 35 -16 67 -19 258 -19 l217 0 0 -100 0
-100 -230 0 c-207 0 -237 2 -292 21 -170 57 -271 198 -271 379 0 116 26 181
106 266 109 118 162 132 465 133 l222 1 0 -99z m760 -1 l0 -100 -125 0 -125 0
0 -300 0 -300 -100 0 -100 0 -2 298 -3 297 -122 3 -123 3 0 99 0 100 350 0
350 0 0 -100z m760 64 c114 -54 181 -128 220 -245 27 -80 24 -185 -10 -272
-30 -80 -113 -167 -198 -209 l-67 -33 -180 0 c-179 0 -180 0 -240 29 -74 36
-163 124 -194 191 -106 227 16 491 259 561 30 9 95 12 195 11 145 -2 152 -3
215 -33z m-2860 -999 l0 -55 -167 -2 -168 -3 0 -25 0 -25 120 -5 c134 -6 160
-15 196 -73 25 -40 21 -116 -8 -155 -39 -54 -71 -62 -260 -62 l-173 0 0 60 0
60 170 0 170 0 0 24 c0 24 -1 24 -117 27 -101 4 -123 7 -154 27 -62 38 -86
120 -55 180 16 30 53 66 76 75 8 3 95 6 193 6 l177 1 0 -55z m242 -16 l64 -72
64 72 63 71 70 0 c82 0 87 13 -50 -144 l-93 -106 0 -105 0 -105 -55 0 -55 0 0
106 0 106 -87 100 c-49 55 -96 111 -106 124 l-19 24 70 0 70 0 64 -71z m828
16 l0 -55 -157 0 c-87 0 -164 -4 -171 -9 -8 -5 -12 -17 -10 -27 3 -17 16 -20
123 -24 125 -5 144 -11 184 -54 36 -39 41 -119 9 -166 -42 -62 -71 -70 -265
-70 l-173 0 0 60 0 60 169 0 c132 0 170 3 174 13 11 28 -10 35 -125 38 -99 4
-121 7 -144 25 -93 69 -95 181 -5 241 32 22 44 23 212 23 l179 0 0 -55z m440
0 l0 -54 -72 -3 -73 -3 -3 -172 -2 -173 -55 0 -55 0 0 175 0 175 -75 0 -75 0
0 55 0 55 205 0 205 0 0 -55z m430 0 l0 -55 -140 0 -140 0 0 -115 0 -115 140
0 140 0 0 -60 0 -60 -200 0 -200 0 0 230 0 230 200 0 200 0 0 -55z m248 42 c6
-7 29 -64 51 -127 23 -63 44 -122 47 -130 4 -9 25 40 50 113 24 71 48 135 55
143 17 21 102 18 122 -4 10 -11 30 -90 51 -207 20 -105 38 -200 41 -212 5 -22
2 -23 -54 -23 -57 0 -60 1 -65 28 -3 15 -13 66 -22 115 -9 48 -18 86 -19 85
-2 -2 -18 -41 -36 -88 -37 -96 -73 -140 -116 -140 -56 0 -91 43 -128 160 -10
30 -21 58 -24 63 -4 4 -15 -37 -25 -90 -26 -144 -19 -133 -82 -133 -45 0 -54
3 -54 18 0 45 72 398 85 419 13 19 24 23 64 23 27 0 53 -6 59 -13z m912 -42
l0 -55 -157 0 c-87 0 -164 -4 -171 -9 -8 -5 -12 -17 -10 -27 3 -17 16 -20 124
-24 133 -6 159 -15 195 -73 25 -40 21 -116 -8 -155 -39 -54 -71 -62 -260 -62
l-173 0 0 60 0 60 168 2 c159 3 167 4 167 23 0 19 -8 20 -115 25 -91 4 -122 9
-150 25 -75 44 -92 155 -34 217 16 16 38 34 49 38 11 5 100 9 198 9 l177 1 0
-55z m-1160 -175 l0 -61 -112 3 -113 3 -3 58 -3 57 116 0 115 0 0 -60z"/>
<path d="M1809 3217 c-133 -50 -188 -199 -121 -328 47 -90 141 -135 251 -119
137 19 252 89 404 244 113 117 138 153 60 88 -73 -61 -203 -151 -254 -177
l-45 -23 9 46 c21 100 -18 192 -103 248 -48 32 -145 42 -201 21z"/>
<path d="M3335 3217 c-115 -30 -226 -98 -360 -223 l-60 -55 50 34 c76 52 133
83 212 116 l72 29 -11 -26 c-34 -86 -28 -155 21 -226 65 -94 189 -124 295 -72
159 78 169 294 19 400 -35 24 -53 29 -115 32 -40 2 -96 -2 -123 -9z"/>
<path d="M1238 1681 c-59 -19 -97 -52 -124 -107 -22 -46 -26 -63 -21 -107 8
-66 47 -123 107 -154 42 -23 54 -24 175 -21 123 3 132 5 171 31 57 38 87 97
87 166 0 80 -39 143 -113 182 -30 15 -242 23 -282 10z"/>
<path d="M3875 1685 c-5 -2 -22 -6 -37 -9 -35 -8 -94 -59 -115 -100 -21 -40
-21 -132 0 -172 22 -43 79 -91 125 -104 22 -7 85 -10 154 -8 112 3 118 4 159
34 141 102 100 316 -68 355 -36 8 -196 11 -218 4z"/>
</g>
</svg>
